<?xml version="1.0" standalone="no"?>
<!DOCTYPE svg PUBLIC "-//W3C//DTD SVG 20010904//EN"
 "http://www.w3.org/TR/2001/REC-SVG-20010904/DTD/svg10.dtd">
<svg version="1.0" xmlns="http://www.w3.org/2000/svg"
 width="303.000000pt" height="166.000000pt" viewBox="0 0 303.000000 166.000000"
 preserveAspectRatio="xMidYMid meet">

<g transform="translate(0.000000,166.000000) scale(0.100000,-0.100000)"
fill="#000000" stroke="none">
<path d="M0 1450 l0 -209 103 67 c57 37 104 71 106 75 1 5 -23 27 -54 49 -31
22 -55 42 -52 44 2 2 34 4 72 5 65 2 70 4 112 42 24 22 42 45 40 51 -3 6 6 12
19 12 21 2 26 -6 41 -60 9 -33 16 -63 15 -66 -2 -3 -19 -11 -38 -17 l-36 -13
7 38 c4 20 9 47 10 59 2 12 6 28 11 35 4 7 -14 -7 -40 -32 -39 -37 -46 -50
-46 -82 0 -21 -2 -38 -5 -38 -3 0 -25 9 -48 21 l-42 20 35 -30 c20 -17 47 -31
62 -31 15 0 29 -4 33 -10 8 -13 -85 -151 -97 -144 -5 3 -6 24 -3 47 6 32 4 39
-6 35 -8 -3 -56 -25 -106 -48 -84 -39 -93 -45 -93 -70 0 -25 4 -28 46 -34 26
-3 79 -6 118 -7 39 0 80 -4 91 -9 17 -7 17 -9 3 -9 -10 -1 -18 -5 -18 -10 0
-4 -35 -11 -77 -14 -68 -4 -80 -2 -96 14 -10 11 -23 17 -28 13 -5 -3 -16 -1
-23 6 -12 9 -14 -10 -15 -115 -2 -108 0 -125 14 -125 9 0 25 -9 37 -20 12 -11
18 -20 12 -20 -5 0 -3 -4 5 -9 10 -6 13 -35 13 -112 -1 -57 5 -129 13 -159 13
-54 13 -54 14 -16 1 38 13 44 16 8 4 -43 17 -63 36 -57 11 4 19 2 19 -4 0 -6
-4 -11 -10 -11 -5 0 -10 -4 -10 -10 0 -5 7 -10 15 -10 8 0 15 9 15 20 0 11 5
20 11 20 6 0 9 -14 7 -32 -2 -18 -8 -32 -13 -31 -6 1 -9 -17 -6 -43 2 -37 0
-44 -15 -45 -15 0 -15 -2 -4 -6 8 -4 21 -12 28 -20 11 -11 11 -14 0 -17 -38
-12 -58 -13 -58 -3 0 8 -4 7 -12 -1 -7 -7 -17 -12 -24 -12 -17 0 -27 32 -12
41 9 6 8 10 -5 15 -9 3 -17 10 -17 15 0 6 8 6 19 0 10 -6 21 -7 25 -4 3 3 6 1
6 -6 0 -7 5 -9 10 -6 13 8 3 26 -13 24 -26 -3 -37 2 -37 16 0 8 -4 15 -10 15
-5 0 -10 -15 -10 -34 0 -37 -21 -62 -45 -52 -12 4 -15 -5 -15 -48 0 -30 4 -56
10 -58 5 -1 32 -1 59 0 46 4 49 5 39 22 -7 10 -17 16 -23 13 -5 -3 -1 4 10 15
21 22 125 43 125 26 0 -5 16 -9 35 -8 19 1 35 -2 35 -8 0 -5 -9 -7 -20 -3 -11
3 -28 2 -37 -4 -10 -6 -12 -11 -5 -11 6 0 12 -4 12 -10 0 -5 -6 -7 -13 -4 -8
3 -20 -2 -27 -11 -7 -8 -9 -15 -4 -15 4 0 -1 -7 -12 -16 -17 -14 -12 -15 66
-10 47 3 220 8 385 12 165 4 308 11 318 16 9 5 21 6 26 3 14 -8 41 6 41 21 0
8 5 14 10 14 6 0 10 -7 10 -15 0 -11 11 -15 40 -15 33 0 40 3 40 20 0 11 5 20
10 20 6 0 10 6 10 14 0 21 82 37 189 37 53 -1 126 2 164 5 65 5 67 4 68 -18 1
-21 2 -21 7 -3 10 28 48 32 55 5 3 -11 11 -20 17 -20 7 0 10 8 7 20 -5 18 0
20 38 20 25 0 45 -5 48 -12 4 -10 6 -10 6 0 1 6 6 12 12 12 5 0 8 -4 5 -9 -4
-5 3 -7 14 -4 11 3 20 0 20 -6 0 -6 7 -11 15 -11 9 0 12 6 9 15 -4 11 0 15 16
15 16 0 20 -4 16 -15 -4 -10 1 -15 15 -15 16 0 20 -5 17 -18 -5 -16 1 -18 46
-16 101 5 93 3 74 15 -25 14 -24 42 2 35 67 -19 63 -17 44 -31 -15 -11 58 -12
420 -10 241 2 441 6 444 10 4 4 6 169 5 367 l-2 359 27 -1 c62 -4 72 -1 72 24
0 14 4 28 10 31 14 9 12 58 -2 74 -11 11 -10 14 0 18 8 3 9 9 4 16 -5 7 -6 58
-3 115 3 56 5 107 3 112 -6 17 -26 11 -75 -20 -38 -24 -59 -30 -103 -30 -50 0
-55 -2 -49 -17 4 -10 9 -26 12 -35 3 -9 22 -22 42 -29 56 -18 56 -20 20 -50
l-34 -28 75 -77 75 -77 -67 51 c-37 29 -70 52 -73 52 -3 0 -5 -14 -5 -32 0
-32 -1 -31 -33 22 -31 52 -31 55 -13 58 11 2 34 15 50 29 l29 25 -35 -7 c-30
-6 -35 -4 -35 12 2 32 -12 83 -23 83 -5 0 -10 -15 -10 -33 0 -42 -9 -52 -26
-29 -11 14 -10 22 7 50 10 18 19 35 19 36 0 4 -147 17 -188 16 -53 -1 -74 8
-63 28 5 9 18 17 28 17 10 0 17 6 15 14 -1 7 3 20 10 28 9 12 9 16 -3 24 -10
6 -11 9 -1 9 8 0 10 5 5 13 -4 6 -8 15 -8 19 0 3 -4 10 -9 15 -5 5 -6 3 -2 -4
7 -12 3 -14 -44 -17 -8 -1 -27 -9 -42 -19 -15 -11 -33 -17 -40 -14 -9 4 -7 6
3 6 9 1 20 8 23 17 3 8 2 12 -4 9 -6 -3 -10 1 -10 9 0 9 -4 16 -10 16 -5 0
-10 23 -10 50 l0 50 -529 0 c-414 0 -531 -3 -535 -12 -5 -10 -7 -10 -12 -1 -4
9 -161 12 -675 13 l-669 0 0 -210z m190 190 c0 -5 -7 -7 -15 -4 -8 4 -15 8
-15 10 0 2 7 4 15 4 8 0 15 -4 15 -10z m1075 -10 c3 -5 1 -10 -4 -10 -6 0 -11
5 -11 10 0 6 2 10 4 10 3 0 8 -4 11 -10z m35 -10 c0 -5 -4 -10 -10 -10 -5 0
-10 5 -10 10 0 6 5 10 10 10 6 0 10 -4 10 -10z m30 0 c0 -5 -4 -10 -10 -10 -5
0 -10 5 -10 10 0 6 5 10 10 10 6 0 10 -4 10 -10z m60 -26 c0 -14 -4 -23 -9
-19 -11 6 -10 45 1 45 4 0 8 -12 8 -26z m-60 -4 c0 -5 -4 -10 -10 -10 -5 0
-10 5 -10 10 0 6 5 10 10 10 6 0 10 -4 10 -10z m0 -30 c0 -5 -2 -10 -4 -10 -3
0 -8 5 -11 10 -3 6 -1 10 4 10 6 0 11 -4 11 -10z m30 0 c0 -5 -4 -10 -10 -10
-5 0 -10 5 -10 10 0 6 5 10 10 10 6 0 10 -4 10 -10z m-35 -30 c3 -5 1 -10 -4
-10 -6 0 -11 5 -11 10 0 6 2 10 4 10 3 0 8 -4 11 -10z m125 -10 c0 -5 -4 -10
-10 -10 -5 0 -10 5 -10 10 0 6 5 10 10 10 6 0 10 -4 10 -10z m756 -55 c-4 -14
-13 -25 -20 -25 -8 0 -16 -5 -18 -12 -3 -7 -11 -9 -24 -3 -10 4 -25 7 -31 6
-22 -3 -14 6 25 30 69 44 78 44 68 4z m54 -11 c0 -33 -1 -34 -37 -33 -31 0
-34 2 -18 9 11 5 16 9 11 9 -5 1 -3 8 4 16 7 8 9 15 5 15 -4 0 -2 7 5 15 18
21 30 9 30 -31z m196 11 c-3 -9 2 -20 13 -27 25 -15 15 -38 -15 -38 -21 0 -24
4 -24 40 0 30 4 40 16 40 10 0 14 -5 10 -15z m-1937 -32 c0 -10 -86 -73 -99
-73 -5 0 -16 13 -24 29 l-15 29 57 10 c77 13 82 13 81 5z m925 -14 c10 -15 20
-19 35 -14 11 3 26 3 33 -2 7 -4 27 -9 43 -10 59 -3 151 -12 189 -19 32 -6 42
-4 52 11 13 18 15 18 34 -3 11 -11 20 -31 19 -44 -1 -23 -1 -22 -9 2 -4 14 -9
21 -10 15 -6 -26 -4 -41 5 -47 6 -4 -2 -8 -17 -8 -16 0 -28 5 -28 10 0 6 6 10
13 10 9 0 14 13 14 38 0 20 -2 29 -4 20 -2 -10 -8 -18 -13 -18 -5 0 -7 -8 -3
-17 5 -17 5 -17 -8 -1 -10 12 -26 16 -58 14 -47 -3 -66 -20 -31 -29 13 -3 20
0 20 9 0 8 5 14 10 14 6 0 10 -7 10 -15 0 -18 26 -20 33 -2 3 7 6 4 6 -6 1
-18 -6 -18 -106 -12 -60 3 -125 8 -145 11 -30 5 -38 3 -38 -10 0 -22 -16 -20
-40 4 -17 17 -24 18 -41 10 -23 -13 -49 2 -49 27 0 10 7 13 23 8 19 -5 20 -4
5 5 -24 15 -22 36 4 54 29 21 34 20 52 -5z m-1054 -101 c6 -24 15 -56 20 -72
22 -66 11 -68 -40 -7 -27 33 -50 63 -50 67 0 11 42 54 51 54 5 0 13 -19 19
-42z m863 -18 c17 0 27 -5 27 -15 0 -14 3 -14 24 0 20 13 39 14 132 5 60 -5
132 -10 161 -10 29 0 64 -5 78 -12 29 -13 43 -51 26 -72 -8 -10 -8 -16 4 -26
13 -11 15 -5 15 45 l0 58 61 -7 c34 -3 77 -6 95 -6 34 0 34 -1 34 -45 0 -41 2
-45 25 -45 19 0 29 10 45 41 19 36 24 40 53 37 28 -3 36 -11 64 -63 18 -33 33
-63 33 -67 0 -5 -13 -8 -28 -8 -16 0 -32 3 -36 8 -4 4 -47 7 -94 7 -234 0
-310 5 -326 21 -9 8 -16 11 -16 5 0 -6 -16 -11 -35 -11 -35 0 -35 0 -35 45 0
33 -4 45 -15 45 -11 0 -15 -12 -15 -45 l0 -46 -35 3 c-36 2 -41 11 -36 74 2
16 -5 23 -23 26 -26 5 -35 -5 -16 -17 17 -10 11 -54 -9 -64 -11 -6 -66 -8
-140 -4 l-121 6 0 75 0 75 38 -7 c20 -3 49 -6 65 -6z m1453 -31 c46 -12 49
-15 35 -38 -7 -11 -17 -8 -52 17 -48 36 -47 37 17 21z m42 -140 c-44 -38 -51
-36 -32 9 9 20 18 43 22 51 4 11 10 9 24 -9 19 -23 18 -23 -14 -51z m-2370 14
c-10 -2 -28 -2 -40 0 -13 2 -5 4 17 4 22 1 32 -1 23 -4z m150 -10 c-10 -2 -26
-2 -35 0 -10 3 -2 5 17 5 19 0 27 -2 18 -5z m-215 -10 c-7 -2 -19 -2 -25 0 -7
3 -2 5 12 5 14 0 19 -2 13 -5z m434 1 c-3 -3 -12 -4 -19 -1 -8 3 -5 6 6 6 11
1 17 -2 13 -5z m231 -15 c-2 -6 -7 -10 -11 -10 -4 1 -28 1 -53 1 -27 0 -43 4
-39 10 9 14 108 13 103 -1z m412 -29 c12 -8 11 -10 -7 -10 -13 0 -23 5 -23 10
0 13 11 13 30 0z m130 1 c0 -6 -17 -7 -37 -4 -52 8 -54 13 -5 13 23 0 42 -4
42 -9z m785 -28 c116 -3 212 -7 214 -9 3 -3 -1 -10 -8 -17 -11 -9 -14 -9 -18
1 -5 14 -50 17 -55 3 -1 -5 -21 -12 -43 -15 -30 -4 -34 -3 -15 3 l25 9 -25 1
c-14 1 -50 3 -80 6 -39 3 -48 2 -30 -4 21 -8 18 -9 -20 -9 -26 0 -38 2 -28 6
19 8 -204 5 -267 -3 -32 -4 -36 -3 -20 5 18 9 17 10 -5 5 -14 -2 -54 0 -89 6
-107 19 -53 31 109 24 80 -3 240 -8 355 -12z m293 -20 c-10 -2 -28 -2 -40 0
-13 2 -5 4 17 4 22 1 32 -1 23 -4z m-563 -13 c8 -13 -5 -13 -25 0 -13 8 -13
10 2 10 9 0 20 -4 23 -10z m-1325 -141 c0 -5 -4 -9 -10 -9 -5 0 -10 7 -10 16
0 8 5 12 10 9 6 -3 10 -10 10 -16z m-537 -34 c-3 -9 -8 -14 -10 -11 -3 3 -2 9
2 15 9 16 15 13 8 -4z m37 -25 c0 8 2 11 5 8 3 -3 2 -13 -1 -23 -7 -17 -8 -17
-21 1 -12 16 -13 16 -13 1 0 -9 -4 -17 -10 -17 -13 0 -13 13 2 28 8 8 15 9 25
1 10 -9 13 -8 13 1z m490 -5 c0 -8 -4 -15 -10 -15 -5 0 -10 7 -10 15 0 8 5 15
10 15 6 0 10 -7 10 -15z m-339 -158 c-10 -9 -11 -8 -5 6 3 10 9 15 12 12 3 -3
0 -11 -7 -18z m1527 -48 c43 4 45 5 17 12 -19 4 3 7 63 8 51 0 114 -4 140 -11
35 -9 47 -9 50 0 2 7 20 11 40 11 21 -1 29 -3 19 -6 -32 -8 -6 -24 31 -18 36
5 36 4 7 -5 -16 -5 -46 -7 -65 -4 -46 9 -35 -3 16 -16 l39 -10 -40 7 c-22 4
-67 6 -100 5 -44 0 -55 2 -40 9 14 6 3 7 -35 3 -30 -4 -61 -11 -67 -16 -7 -6
-13 -6 -13 -1 0 5 6 15 13 22 10 10 9 12 -3 9 -18 -4 -40 -30 -34 -40 3 -5 15
-8 27 -9 12 0 16 -3 10 -6 -7 -2 -13 -11 -13 -19 0 -8 -6 -11 -15 -8 -8 4 -15
1 -15 -5 0 -6 -9 -11 -20 -11 -11 0 -20 -4 -20 -8 0 -17 -26 -8 -43 15 -10 13
-13 23 -7 23 5 0 10 7 10 15 0 8 -4 15 -10 15 -12 0 -14 43 -2 54 4 4 8 2 10
-6 2 -9 16 -12 50 -9z m522 1 c-8 -5 -19 -10 -25 -10 -5 0 -3 5 5 10 8 5 20
10 25 10 6 0 3 -5 -5 -10z m-2036 -32 c-3 -4 0 -8 5 -8 6 0 11 5 11 10 0 6 4
10 10 10 5 0 7 -7 4 -15 -4 -8 -15 -15 -25 -15 -14 0 -19 7 -19 28 0 20 3 23
9 12 6 -8 7 -18 5 -22z m1973 16 c-3 -3 -12 -4 -19 -1 -8 3 -5 6 6 6 11 1 17
-2 13 -5z m147 -9 c16 -16 13 -36 -12 -70 -13 -19 -14 -18 -8 12 4 26 1 35
-14 43 -11 6 -20 15 -20 20 0 16 37 12 54 -5z m-2347 -32 c-3 -10 -5 -4 -5 12
0 17 2 24 5 18 2 -7 2 -21 0 -30z m375 -13 c-9 -27 -20 -50 -24 -50 -5 0 -7 3
-5 8 3 4 10 26 16 50 7 23 16 42 20 42 5 0 2 -22 -7 -50z m-345 8 c-3 -7 -5
-2 -5 12 0 14 2 19 5 13 2 -7 2 -19 0 -25z m2140 26 c-3 -3 -12 -4 -19 -1 -8
3 -5 6 6 6 11 1 17 -2 13 -5z m-1374 -19 c4 -8 2 -17 -3 -20 -6 -4 -10 3 -10
14 0 25 6 27 13 6z m1450 8 c-7 -2 -21 -2 -30 0 -10 3 -4 5 12 5 17 0 24 -2
18 -5z m44 1 c-3 -3 -12 -4 -19 -1 -8 3 -5 6 6 6 11 1 17 -2 13 -5z m-352 -14
c-4 -6 7 -10 24 -10 29 0 31 -2 31 -40 0 -38 -2 -40 -30 -40 -16 0 -30 -5 -30
-11 0 -5 -4 -7 -10 -4 -5 3 -10 1 -10 -6 0 -7 -9 -3 -20 9 -12 13 -20 35 -20
56 0 28 5 36 28 44 36 14 44 14 37 2z m377 -25 c-6 -34 -12 -32 -12 6 0 16 4
28 9 25 4 -3 6 -17 3 -31z m-1645 19 c-3 -3 -12 -4 -19 -1 -8 3 -5 6 6 6 11 1
17 -2 13 -5z m28 -4 c3 -5 1 -10 -4 -10 -6 0 -11 5 -11 10 0 6 2 10 4 10 3 0
8 -4 11 -10z m72 4 c-3 -3 -12 -4 -19 -1 -8 3 -5 6 6 6 11 1 17 -2 13 -5z
m1305 -21 c-10 -16 -22 -36 -25 -45 -4 -10 -13 -18 -22 -18 -11 0 -15 11 -15
45 l0 45 41 0 40 0 -19 -27z m-1655 -5 c-3 -8 -6 -5 -6 6 -1 11 2 17 5 13 3
-3 4 -12 1 -19z m1430 -10 c-3 -7 -5 -2 -5 12 0 14 2 19 5 13 2 -7 2 -19 0
-25z m413 12 c0 -16 -4 -18 -22 -11 -32 12 -34 31 -4 31 19 0 26 -5 26 -20z
m-573 -32 c-3 -8 -6 -5 -6 6 -1 11 2 17 5 13 3 -3 4 -12 1 -19z m120 -30 c-2
-13 -4 -5 -4 17 -1 22 1 32 4 23 2 -10 2 -28 0 -40z m-1402 -3 c-3 -25 -3 -45
2 -44 25 4 50 -3 50 -14 0 -9 -9 -12 -23 -9 -36 7 -47 26 -39 72 9 55 19 51
10 -5z m238 38 c-7 -2 -19 -2 -25 0 -7 3 -2 5 12 5 14 0 19 -2 13 -5z m-302
-44 c-5 -13 -10 -19 -10 -12 -1 15 10 45 15 40 3 -2 0 -15 -5 -28z m424 11 c3
-5 1 -10 -4 -10 -6 0 -11 5 -11 10 0 6 2 10 4 10 3 0 8 -4 11 -10z m-708 -22
c-3 -8 -6 -5 -6 6 -1 11 2 17 5 13 3 -3 4 -12 1 -19z m486 -32 c-4 -20 -9 -22
-34 -17 -40 8 -38 24 3 32 18 4 34 7 34 8 1 0 -1 -10 -3 -23z m150 14 c45 0
57 -3 57 -16 0 -11 -7 -14 -30 -10 l-30 4 0 -54 c0 -53 0 -54 30 -54 21 0 30
5 31 18 1 16 2 16 6 0 2 -10 8 -18 12 -18 4 0 7 -9 7 -19 0 -17 -2 -18 -20 -5
-28 19 -63 18 -75 -3 -10 -17 -12 -17 -25 0 -9 12 -27 17 -60 17 -41 0 -46 -2
-46 -22 l-1 -23 -18 23 c-25 29 -61 30 -54 2 7 -25 -8 -26 -24 -1 -7 11 -25
22 -40 24 -15 3 8 5 52 5 199 1 195 1 196 20 0 15 2 14 9 -3 7 -14 9 -3 7 38
-1 32 -6 56 -12 55 -5 -2 -9 -7 -7 -11 1 -5 -2 -6 -8 -2 -19 11 -50 14 -50 4
0 -15 -18 -1 -31 23 -11 20 -10 21 27 15 22 -4 65 -7 97 -7z m-375 -47 c-12
-26 -16 -28 -53 -22 l-40 6 41 2 c38 1 42 4 49 34 4 17 9 27 11 21 3 -7 -1
-25 -8 -41z m-261 -5 c-3 -7 -5 -2 -5 12 0 14 2 19 5 13 2 -7 2 -19 0 -25z
m186 25 c-13 -2 -35 -2 -50 0 -16 2 -5 4 22 4 28 0 40 -2 28 -4z m144 -30 c-3
-10 -5 -4 -5 12 0 17 2 24 5 18 2 -7 2 -21 0 -30z m1370 -39 c-9 -9 -28 6 -21
18 4 6 10 6 17 -1 6 -6 8 -13 4 -17z m-1496 -44 c30 0 39 4 40 18 1 12 3 10 7
-6 l7 -23 32 30 32 29 -1 -44 c-1 -44 -11 -57 -22 -29 -8 23 -26 18 -27 -7 l0
-23 -16 23 c-13 19 -25 22 -82 23 -36 1 -56 4 -43 6 16 3 22 12 23 31 l2 27 4
-27 c4 -25 8 -28 44 -28z m1694 30 c-3 -5 -10 -10 -16 -10 -5 0 -9 5 -9 10 0
6 7 10 16 10 8 0 12 -4 9 -10z m-1008 -16 c-3 -3 -12 -4 -19 -1 -8 3 -5 6 6 6
11 1 17 -2 13 -5z m-794 -21 c-7 -2 -21 -2 -30 0 -10 3 -4 5 12 5 17 0 24 -2
18 -5z m147 -23 c0 -5 -4 -10 -10 -10 -5 0 -10 5 -10 10 0 6 5 10 10 10 6 0
10 -4 10 -10z"/>
<path d="M1389 1403 c-13 -16 -12 -17 3 -4 10 7 25 11 33 7 8 -3 15 -1 15 4 0
17 -37 11 -51 -7z"/>
<path d="M1490 1386 c0 -10 -6 -13 -15 -10 -9 4 -15 0 -16 -7 0 -8 -4 -5 -9 6
-8 19 -9 19 -9 -2 -1 -25 23 -32 33 -10 3 6 4 -1 2 -18 -1 -16 -1 -25 1 -19 5
15 29 21 71 19 33 -2 39 8 22 35 -8 12 -10 10 -10 -8 0 -13 -4 -20 -10 -17 -6
4 -7 11 -4 17 5 7 1 9 -9 5 -9 -3 -23 1 -32 9 -13 14 -15 14 -15 0z m20 -20
c0 -3 -4 -8 -10 -11 -5 -3 -10 -1 -10 4 0 6 5 11 10 11 6 0 10 -2 10 -4z"/>
<path d="M1408 1383 c19 -7 14 -23 -10 -32 -12 -4 -17 -11 -11 -14 16 -10 47
18 40 37 -4 9 -12 16 -19 15 -10 0 -10 -2 0 -6z"/>
<path d="M1590 1352 c0 -15 2 -15 10 -2 8 12 10 12 10 -5 0 -17 2 -17 10 -5 9
13 10 13 10 0 0 -13 1 -13 10 0 8 12 10 12 10 1 0 -11 3 -11 15 -1 24 20 18
26 -30 28 -37 1 -45 -2 -45 -16z"/>
<path d="M1160 1235 c0 -63 6 -68 71 -63 l44 4 -32 14 c-39 17 -43 30 -8 30
14 0 25 5 25 10 0 6 -11 10 -25 10 -14 0 -25 5 -25 10 0 6 11 10 25 10 16 0
25 6 25 15 0 11 -12 15 -50 15 l-50 0 0 -55z"/>
<path d="M1304 1266 c-10 -26 3 -44 35 -51 45 -10 38 -26 -9 -23 -27 2 -39 7
-36 15 3 7 1 15 -4 18 -16 10 -11 -31 5 -45 8 -6 31 -14 52 -17 73 -9 99 45
33 68 -35 13 -40 31 -7 27 12 -2 24 2 27 7 3 6 -15 11 -43 13 -35 2 -49 -1
-53 -12z"/>
<path d="M1430 1260 c0 -5 9 -10 20 -10 17 0 20 -7 20 -45 0 -40 3 -45 23 -45
19 0 22 5 22 42 0 35 3 42 18 40 10 -2 17 3 17 13 0 12 -13 15 -60 15 -33 0
-60 -4 -60 -10z"/>
<path d="M1570 1205 c0 -48 2 -55 20 -55 14 0 20 7 20 22 l0 21 23 -21 c13
-12 34 -22 47 -22 23 0 23 0 4 21 -14 16 -15 23 -6 26 15 6 16 35 0 51 -7 7
-34 12 -60 12 l-48 0 0 -55z m73 20 c1 -5 -6 -11 -15 -13 -11 -2 -18 3 -18 13
0 17 30 18 33 0z"/>
<path d="M1733 1244 c-2 -7 -3 -32 -1 -56 l4 -43 47 -3 c50 -3 64 11 22 22
-22 6 -38 28 -17 25 18 -3 32 2 32 11 0 6 -9 10 -20 10 -11 0 -20 5 -20 10 0
6 12 10 26 10 40 0 19 17 -27 22 -26 2 -43 -1 -46 -8z"/>
<path d="M1860 1246 c-3 -2 -3 -27 -2 -55 4 -48 5 -51 37 -57 36 -6 59 1 50
17 -4 5 -15 9 -25 9 -15 0 -19 9 -22 42 -2 29 -8 44 -18 46 -9 1 -18 1 -20 -2z"/>
<path d="M2018 1227 c-15 -12 -58 -79 -58 -91 0 -10 29 -7 50 7 17 10 26 9 51
-5 53 -31 60 -23 28 36 -32 58 -49 71 -71 53z m27 -47 c3 -5 -1 -10 -10 -10
-9 0 -13 5 -10 10 3 6 8 10 10 10 2 0 7 -4 10 -10z"/>
<path d="M2048 613 c6 -2 18 -2 25 0 6 3 1 5 -13 5 -14 0 -19 -2 -12 -5z"/>
<path d="M2810 1645 c-14 -8 -20 -14 -15 -14 6 0 21 6 35 14 14 8 21 14 15 14
-5 0 -21 -6 -35 -14z"/>
<path d="M2703 1513 c-7 -2 -25 -23 -41 -46 -40 -59 -44 -67 -38 -67 3 0 18
18 32 40 22 33 29 38 44 30 30 -16 49 -12 43 9 -3 13 -11 17 -26 14 -22 -4
-22 -4 -3 11 19 16 14 20 -11 9z"/>
<path d="M3021 1454 c0 -11 3 -14 6 -6 3 7 2 16 -1 19 -3 4 -6 -2 -5 -13z"/>
<path d="M5 450 c3 -5 8 -10 11 -10 2 0 4 5 4 10 0 6 -5 10 -11 10 -5 0 -7 -4
-4 -10z"/>
<path d="M160 400 c0 -5 5 -10 10 -10 6 0 10 5 10 10 0 6 -4 10 -10 10 -5 0
-10 -4 -10 -10z"/>
<path d="M3021 344 c-1 -19 -5 -21 -46 -16 -38 4 -44 2 -40 -11 5 -11 16 -14
48 -10 51 7 50 6 44 35 -4 21 -4 21 -6 2z"/>
<path d="M1390 296 c0 -16 -2 -18 -9 -7 -5 8 -16 11 -25 8 -30 -12 -16 -27 25
-27 32 0 40 3 35 15 -3 10 1 15 14 15 23 0 35 -16 18 -23 -7 -3 12 -5 42 -5
l55 0 -40 11 c-22 7 -47 16 -55 22 -29 18 -60 14 -60 -9z"/>
<path d="M1746 305 c5 -11 -1 -15 -20 -15 -14 0 -26 5 -26 10 0 15 -32 12 -54
-5 -18 -13 -8 -15 98 -15 64 0 115 4 112 8 -3 5 -19 7 -36 4 -23 -3 -30 0 -30
12 0 10 -9 16 -25 16 -18 0 -23 -4 -19 -15z"/>
<path d="M1187 289 c-9 -6 -15 -14 -12 -20 8 -12 55 -12 55 1 0 6 -8 10 -17
10 -15 0 -16 2 -3 10 20 13 0 12 -23 -1z"/>
<path d="M1273 263 c9 -2 23 -2 30 0 6 3 -1 5 -18 5 -16 0 -22 -2 -12 -5z"/>
<path d="M138 243 c7 -3 16 -2 19 1 4 3 -2 6 -13 5 -11 0 -14 -3 -6 -6z"/>
<path d="M2888 143 c-14 -23 -18 -24 -18 -9 0 15 -3 16 -15 6 -8 -6 -19 -9
-25 -5 -5 3 -20 -1 -32 -9 -12 -9 -17 -16 -10 -16 6 0 12 -4 12 -10 0 -5 -8
-10 -19 -10 -11 0 -18 6 -17 16 0 9 -6 19 -14 21 -12 4 -12 3 -2 -5 11 -7 9
-10 -6 -14 -15 -4 -19 -2 -15 8 3 9 -2 14 -13 14 -9 0 -14 -3 -11 -7 4 -3 0
-14 -8 -23 -14 -15 -14 -18 0 -30 12 -10 15 -10 15 5 0 13 3 15 13 6 10 -8 33
-7 86 3 40 8 82 12 94 9 18 -4 19 -3 7 6 -9 7 -10 11 -3 11 6 0 15 -4 18 -10
3 -5 18 -10 33 -10 l27 1 -24 19 c-12 11 -28 17 -35 13 -6 -4 -5 1 3 10 12 15
11 17 -3 17 -10 0 -14 5 -11 10 3 6 2 10 -2 10 -5 0 -16 -12 -25 -27z"/>
<path d="M2559 118 c-6 -21 -5 -37 2 -32 5 3 7 9 4 14 -3 5 3 11 12 13 17 4
17 5 1 6 -10 0 -18 0 -19 -1z"/>
<path d="M2401 82 c8 -12 19 -17 31 -14 27 7 17 26 -16 30 -25 3 -26 2 -15
-16z"/>
<path d="M2300 77 c0 -4 -4 -5 -10 -2 -5 3 -10 -2 -11 -12 0 -15 -2 -15 -7 -3
-4 9 -12 15 -19 15 -15 0 -30 -15 -15 -15 6 0 9 -7 6 -15 -5 -12 4 -15 50 -15
49 0 56 2 56 20 0 11 -4 20 -10 20 -5 0 -9 -3 -7 -7 2 -9 -6 -13 -25 -13 -6 0
-1 9 11 19 22 20 22 20 2 18 -12 -1 -21 -5 -21 -10z"/>
<path d="M2136 71 c-4 -6 -12 -9 -17 -5 -6 3 -17 -2 -25 -12 -9 -11 -12 -13
-8 -5 5 11 -7 12 -67 8 -106 -7 -163 -17 -167 -28 -2 -5 -13 -9 -25 -10 -12 0
-31 -4 -42 -8 -14 -6 0 -9 42 -9 50 -1 62 2 66 16 4 15 5 14 6 -2 1 -18 7 -19
99 -12 157 11 218 24 218 47 0 12 -7 19 -19 19 -10 0 -15 -4 -12 -10 8 -12
-28 0 -36 13 -4 5 -9 4 -13 -2z m14 -26 c0 -8 -7 -15 -15 -15 -16 0 -20 12 -8
23 11 12 23 8 23 -8z"/>
<path d="M2455 59 c-4 -6 -5 -12 -2 -15 2 -3 7 2 10 11 7 17 1 20 -8 4z"/>
<path d="M2558 63 c6 -2 18 -2 25 0 6 3 1 5 -13 5 -14 0 -19 -2 -12 -5z"/>
<path d="M1618 23 c-50 -8 -30 -24 25 -21 35 2 54 7 54 16 0 12 -23 13 -79 5z"/>
<path d="M1748 23 c6 -2 18 -2 25 0 6 3 1 5 -13 5 -14 0 -19 -2 -12 -5z"/>
<path d="M1483 3 c9 -2 25 -2 35 0 9 3 1 5 -18 5 -19 0 -27 -2 -17 -5z"/>
</g>
</svg>
