<?xml version="1.0" standalone="no"?>
<!DOCTYPE svg PUBLIC "-//W3C//DTD SVG 20010904//EN"
 "http://www.w3.org/TR/2001/REC-SVG-20010904/DTD/svg10.dtd">
<svg version="1.0" xmlns="http://www.w3.org/2000/svg"
 width="408.000000pt" height="306.000000pt" viewBox="0 0 408.000000 306.000000"
 preserveAspectRatio="xMidYMid meet">

<g transform="translate(0.000000,306.000000) scale(0.100000,-0.100000)"
fill="#000000" stroke="none">
<path d="M0 2035 c0 -403 3 -615 10 -615 6 0 10 -5 10 -11 0 -5 -5 -7 -10 -4
-7 4 -10 -63 -10 -194 0 -172 2 -201 15 -201 8 0 15 -5 15 -10 0 -6 -7 -13
-15 -16 -16 -7 -21 -34 -6 -34 5 0 4 -20 -1 -45 -12 -56 -6 -74 24 -74 13 0
33 -1 46 -1 12 0 22 -4 22 -9 0 -5 9 -11 20 -14 11 -3 18 -1 14 4 -7 12 3 11
27 -1 15 -8 19 -7 19 5 0 18 11 19 29 2 11 -10 12 -9 6 3 -6 12 -5 13 6 2 16
-14 33 -16 24 -2 -3 5 4 10 16 10 19 0 20 -2 8 -18 -12 -15 -12 -16 1 -6 8 6
34 12 57 13 38 2 42 0 38 -20 -2 -12 -1 -18 3 -15 4 4 8 12 8 17 1 5 2 12 3
15 0 4 12 -1 25 -9 18 -12 26 -13 36 -4 10 9 11 9 6 0 -4 -8 -1 -13 8 -13 9 0
16 5 16 10 0 7 7 7 21 0 17 -9 23 -8 35 7 30 40 19 44 -140 46 -92 1 -138 6
-149 15 -8 7 -18 9 -21 4 -3 -5 -44 -10 -90 -11 l-85 -2 3 41 c2 22 5 42 7 44
2 2 81 0 174 -5 94 -4 213 -10 265 -13 52 -2 104 -7 115 -11 14 -4 26 0 36 12
19 23 61 132 54 143 -3 4 4 19 14 31 18 22 21 23 33 8 10 -13 39 -18 128 -23
250 -15 283 -25 331 -103 17 -28 27 -33 57 -33 54 0 112 -11 112 -21 0 -5 -31
-9 -70 -9 -58 0 -68 -3 -64 -15 4 -8 16 -15 27 -15 20 0 20 -1 2 -13 -11 -9
-14 -16 -7 -21 6 -3 13 -2 17 4 3 5 17 10 30 10 22 0 23 -2 14 -23 -6 -12 -18
-24 -27 -25 -141 -15 -158 -21 -131 -47 12 -12 65 -22 122 -24 16 -1 18 -8 12
-73 -10 -121 -8 -118 -64 -118 -43 0 -54 5 -85 36 l-35 35 -159 -3 -158 -3
-44 -35 c-40 -32 -51 -35 -122 -39 -72 -3 -77 -4 -80 -27 -2 -17 -7 -21 -16
-15 -10 6 -14 33 -14 95 0 48 -4 86 -10 86 -5 0 -6 -4 -3 -10 4 -6 -7 -10 -27
-10 -26 0 -37 -6 -49 -28 -20 -36 -14 -52 21 -52 23 0 27 -4 23 -19 -3 -11
-18 -25 -33 -31 -32 -13 -44 -39 -41 -88 2 -27 -1 -32 -20 -32 -21 0 -22 1 -4
20 10 11 13 20 7 20 -11 0 -11 19 1 50 16 44 25 80 20 80 -4 0 -14 -7 -24 -16
-17 -15 -17 -14 -8 21 22 78 22 76 -25 74 -23 -2 -47 0 -52 3 -5 4 -45 -11
-89 -33 -75 -37 -103 -43 -77 -17 19 19 14 24 -21 25 -17 0 -49 4 -70 8 l-39
8 6 -169 c8 -225 2 -204 58 -204 26 0 50 -4 53 -10 4 -6 12 -6 23 0 9 5 31 12
47 16 17 3 25 8 19 11 -6 2 4 20 22 40 19 20 34 44 34 52 0 8 3 11 6 8 10 -9
46 12 39 23 -3 5 -13 6 -22 3 -11 -4 -14 -3 -9 5 4 7 17 13 29 13 16 1 17 3 5
6 -28 7 -30 33 -4 45 14 6 27 19 29 29 3 11 10 19 16 19 14 0 14 -17 1 -25 -8
-5 -7 -11 1 -21 9 -11 9 -14 -1 -14 -7 0 -10 -6 -7 -14 3 -8 -1 -20 -8 -26 -8
-7 -14 -15 -13 -18 1 -4 -6 -21 -15 -39 -9 -18 -15 -42 -13 -55 3 -13 5 -26 5
-30 2 -15 22 -8 44 13 12 12 16 19 9 15 -6 -4 -12 -2 -12 3 0 6 5 11 10 11 6
0 10 9 10 19 0 29 14 33 56 15 28 -12 34 -18 23 -25 -16 -10 -12 -11 51 -14
59 -3 154 -16 183 -25 17 -6 27 -5 27 1 0 12 132 7 163 -6 9 -4 27 -4 40 -1
12 3 63 9 112 12 82 5 92 4 112 -16 13 -11 48 -26 80 -32 41 -8 51 -13 37 -18
-13 -5 -2 -10 36 -15 30 -4 70 -16 89 -28 30 -18 32 -22 18 -32 -18 -13 -13
-25 10 -25 8 0 21 -7 30 -16 9 -8 22 -13 29 -10 7 3 16 1 20 -5 4 -6 11 -6 20
2 10 8 14 8 14 0 0 -6 7 -11 16 -11 14 0 14 1 0 16 -9 8 -16 18 -16 21 0 5 57
1 165 -11 22 -2 32 -2 23 1 -34 9 -18 18 26 15 38 -3 44 -7 41 -24 -3 -13 0
-18 9 -15 7 3 13 0 13 -7 0 -14 -66 -9 -86 8 -11 8 -13 8 -10 -3 7 -20 69 -40
140 -43 34 -2 63 -6 65 -10 3 -5 15 -13 27 -19 18 -9 20 -9 10 2 -22 22 -14
31 22 26 19 -3 35 -1 35 4 0 5 11 9 25 9 14 0 25 -4 25 -8 0 -4 10 -8 22 -9
11 -1 24 -6 27 -11 8 -12 83 -14 76 -2 -3 6 -13 10 -21 10 -8 0 -13 3 -12 8 6
20 -25 52 -50 52 -16 0 -57 12 -93 26 -113 45 -202 74 -229 74 -15 0 -30 3
-34 8 -4 4 -44 12 -89 17 -52 6 -82 15 -83 23 -2 21 -3 22 -26 13 -17 -6 -26
-3 -38 13 -30 39 -64 100 -52 92 7 -4 12 -2 12 6 0 8 3 9 8 3 4 -5 12 -11 18
-12 6 -1 24 -5 40 -8 16 -4 45 -6 64 -6 26 1 42 -5 59 -23 25 -27 58 -27 78 0
8 12 20 14 38 10 15 -4 32 -2 39 3 7 6 65 10 142 8 104 -2 134 -5 154 -19 28
-20 50 -24 32 -6 -17 17 -15 28 4 28 8 0 12 4 9 10 -3 5 7 12 22 16 56 12 58
13 37 30 -18 15 -18 15 1 6 105 -50 179 -82 189 -82 6 0 17 -5 23 -11 7 -7 25
-9 48 -5 l36 7 -25 20 c-14 11 -37 18 -53 17 -39 -3 -58 9 -42 28 8 10 15 11
24 4 6 -5 15 -7 18 -3 4 3 7 1 7 -5 0 -7 3 -11 8 -10 4 1 23 -4 42 -11 19 -8
44 -15 55 -16 19 -2 19 -2 2 9 -10 6 -28 19 -39 29 -12 9 -27 17 -35 17 -8 0
-12 4 -9 9 4 5 -6 14 -21 19 -16 6 -22 11 -14 11 10 1 11 5 3 14 -6 6 -12 17
-14 22 -1 6 -9 9 -15 9 -7 -1 -13 2 -13 7 0 5 -10 14 -22 20 -47 21 -68 36
-60 44 4 4 -2 5 -13 1 -11 -4 -16 -4 -12 0 4 4 1 14 -5 22 -11 13 89 -43 102
-57 3 -4 34 -21 70 -38 36 -18 73 -37 83 -43 9 -5 25 -15 35 -20 28 -17 76
-35 85 -32 5 1 16 -7 25 -18 17 -21 17 -20 16 17 -1 29 -6 38 -18 37 -9 -1
-16 4 -16 10 0 14 -99 70 -108 61 -3 -3 2 -13 13 -23 10 -10 14 -11 10 -3 -5
9 -4 12 3 7 7 -4 12 -19 12 -34 -1 -27 -1 -27 -18 -6 -16 18 -24 24 -37 24 -2
0 0 11 5 25 8 21 5 27 -16 42 -69 49 -59 48 41 -6 61 -32 137 -75 169 -95 33
-20 63 -36 67 -36 5 0 9 -23 11 -52 3 -53 28 -83 28 -34 0 14 -4 26 -10 26 -5
0 -10 3 -10 8 0 10 79 2 86 -9 3 -5 -6 -9 -20 -9 -24 0 -37 -22 -18 -33 4 -3
113 -8 242 -11 129 -4 274 -9 323 -12 57 -3 87 -1 87 6 0 5 -6 10 -14 10 -8 0
-18 5 -22 12 -4 6 -3 8 4 4 6 -3 13 -2 17 4 3 5 -3 10 -14 10 -11 0 -22 -8
-24 -17 -4 -14 -5 -12 -6 5 -1 15 5 22 18 22 11 0 21 9 24 23 6 21 6 21 -8 3
-14 -19 -15 -19 -15 6 0 15 4 30 10 33 13 8 13 82 0 90 -6 4 -8 10 -5 15 3 5
1 11 -3 14 -8 5 -8 66 1 147 3 31 1 36 -15 31 -29 -7 -48 16 -48 62 0 42 1 42
30 38 21 -3 30 -10 30 -22 0 -10 8 -26 17 -35 16 -16 17 -16 30 0 11 17 13 17
19 2 4 -10 19 -18 38 -18 29 -2 29 -2 4 -6 -30 -5 -44 -28 -21 -37 8 -3 18 -4
23 -1 4 3 13 -2 20 -9 9 -12 7 -17 -10 -26 -11 -6 -18 -15 -15 -21 10 -15 -2
-10 -21 8 -17 17 -17 17 -11 -6 7 -30 -2 -83 -14 -75 -15 9 -10 -6 7 -24 11
-11 13 -17 5 -20 -18 -6 -33 -40 -21 -47 6 -4 9 -1 8 6 -2 7 5 15 15 17 12 2
17 -3 17 -17 0 -11 5 -23 10 -26 6 -4 7 -11 4 -17 -4 -6 -2 -8 3 -5 6 4 17 0
24 -9 10 -12 23 -14 51 -10 29 5 38 3 38 -8 0 -7 -8 -13 -17 -13 -43 0 -49 -3
-33 -14 11 -8 12 -12 2 -16 -6 -2 -10 -9 -6 -14 3 -5 -6 -9 -20 -9 -25 0 -44
30 -31 50 3 5 1 10 -5 10 -7 0 -10 -12 -8 -27 3 -25 -1 -29 -32 -34 -40 -7
-31 -12 18 -9 18 1 40 -4 48 -10 8 -7 14 -8 14 -3 0 14 51 4 71 -13 20 -18
179 -18 179 -1 0 8 4 7 9 -2 6 -10 37 -14 110 -16 92 -2 101 0 101 17 0 10 -7
18 -17 18 -12 0 -14 3 -6 8 11 7 16 26 14 49 0 6 -10 10 -20 8 -17 -3 -19 1
-16 36 5 49 14 66 26 48 4 -8 4 -16 -2 -20 -6 -3 -5 -10 4 -17 12 -10 14 29
15 258 l1 269 -22 4 -22 4 23 2 c14 1 22 7 22 20 0 16 -13 19 -97 28 l-98 11
98 -5 97 -5 0 102 0 102 -72 -6 c-40 -3 -188 -11 -328 -16 -140 -6 -260 -13
-267 -15 -13 -4 -23 17 -23 50 0 18 7 25 28 29 24 5 461 77 552 92 19 3 52 10
73 15 l37 10 0 169 0 169 -47 7 c-27 4 -42 9 -35 11 6 3 12 10 12 16 0 14
-146 22 -154 8 -3 -4 -27 -4 -53 0 -26 5 -82 13 -123 20 -41 6 -80 16 -86 20
-6 5 -19 7 -28 3 -21 -8 -91 5 -80 15 5 4 50 23 99 41 50 18 94 37 100 42 5 4
-20 7 -55 7 -51 -1 -58 -3 -30 -8 35 -6 34 -7 -53 -44 -93 -39 -121 -43 -190
-28 -23 5 -77 15 -120 22 -43 6 -80 16 -83 21 -3 5 -3 20 0 33 6 22 12 24 69
28 l62 3 -62 2 c-55 2 -63 4 -63 22 0 13 5 18 15 14 8 -4 15 -1 15 5 0 6 -8
11 -17 11 -25 0 -8 13 82 61 164 87 460 250 467 257 4 4 3 13 -1 20 -6 11 -20
7 -63 -17 -59 -34 -73 -38 -62 -18 4 7 3 9 -2 4 -5 -5 -9 -13 -9 -18 0 -6 -92
-62 -205 -126 -216 -122 -237 -132 -227 -117 3 6 2 15 -2 22 -4 7 -167 40
-377 77 -421 73 -943 168 -1214 220 -102 19 -187 35 -190 35 -3 -1 21 -15 53
-31 118 -61 186 -160 157 -229 -35 -85 -136 -125 -310 -125 -163 1 -292 43
-416 135 -141 105 -97 254 85 290 31 7 67 14 81 17 16 4 -57 22 -195 50 -250
49 -802 153 -816 153 -5 0 -9 -244 -9 -615z m3950 -285 c12 -8 11 -10 -7 -10
-13 0 -23 5 -23 10 0 13 11 13 30 0z m-1150 -698 c-3 -37 -9 67 -14 239 -5
171 -4 317 0 330 10 28 22 -464 14 -569z m-2360 363 c11 -13 10 -14 -4 -9 -9
3 -16 10 -16 15 0 13 6 11 20 -6z m-374 -30 c10 -8 15 -14 9 -14 -5 0 -19 6
-29 14 -11 8 -15 15 -10 15 6 0 19 -7 30 -15z m55 -32 c13 -15 12 -15 -8 -4
-24 12 -29 21 -14 21 5 0 15 -7 22 -17z m394 -3 c3 -5 2 -10 -4 -10 -5 0 -13
5 -16 10 -3 6 -2 10 4 10 5 0 13 -4 16 -10z m755 -4 c0 -3 -4 -8 -10 -11 -5
-3 -10 -1 -10 4 0 6 5 11 10 11 6 0 10 -2 10 -4z m-723 -31 c8 -9 13 -18 11
-21 -3 -2 -13 5 -23 16 -21 23 -11 27 12 5z m-342 -13 c-3 -3 -11 0 -18 7 -9
10 -8 11 6 5 10 -3 15 -9 12 -12z m785 8 c0 -5 -2 -10 -4 -10 -3 0 -8 5 -11
10 -3 6 -1 10 4 10 6 0 11 -4 11 -10z m-740 -31 c0 -4 -7 -6 -15 -3 -8 4 -15
10 -15 15 0 4 7 6 15 3 8 -4 15 -10 15 -15z m887 -4 c-1 -5 -4 -12 -7 -15 -3
-3 -11 -18 -18 -34 -15 -34 -38 -22 -27 14 6 18 9 20 16 9 7 -10 8 -6 4 11 -5
21 -2 26 14 26 11 0 19 -5 18 -11z m-47 1 c0 -3 -4 -8 -10 -11 -5 -3 -10 -1
-10 4 0 6 5 11 10 11 6 0 10 -2 10 -4z m470 -21 c-7 -8 -17 -15 -23 -15 -6 0
-2 7 9 15 25 19 30 19 14 0z m380 5 c0 -5 -5 -10 -11 -10 -5 0 -7 5 -4 10 3 6
8 10 11 10 2 0 4 -4 4 -10z m-1635 -10 c3 -5 1 -10 -4 -10 -6 0 -11 5 -11 10
0 6 2 10 4 10 3 0 8 -4 11 -10z m3049 -16 c3 -9 6 -27 6 -40 0 -19 -5 -24 -27
-24 -16 0 -38 -3 -51 -6 -22 -6 -23 -4 -20 32 3 36 6 39 38 45 19 4 38 7 41 8
4 0 10 -6 13 -15z m-1137 -31 c-3 -10 -5 -4 -5 12 0 17 2 24 5 18 2 -7 2 -21
0 -30z m-698 25 c-2 -2 -17 -14 -34 -28 l-30 -25 24 28 c14 15 29 27 34 27 6
0 8 -1 6 -2z m326 -8 c-3 -5 -12 -10 -18 -10 -7 0 -6 4 3 10 19 12 23 12 15 0z
m1398 3 c-7 -2 -19 -2 -25 0 -7 3 -2 5 12 5 14 0 19 -2 13 -5z m-56 -9 c-3 -3
-12 -4 -19 -1 -8 3 -5 6 6 6 11 1 17 -2 13 -5z m-2290 -98 c-3 -7 -29 -10 -76
-8 l-71 4 0 31 c0 47 9 54 74 56 33 1 62 4 65 7 7 7 14 -74 8 -90z m2020 78
c-3 -3 -12 -4 -19 -1 -8 3 -5 6 6 6 11 1 17 -2 13 -5z m123 -3 c0 -4 -35 -14
-77 -20 -43 -7 -89 -15 -103 -18 -14 -3 -22 -2 -17 3 5 5 43 16 85 25 94 20
112 21 112 10z m-1615 -37 c-29 -24 -77 -54 -64 -40 11 12 84 65 89 65 3 0 -8
-11 -25 -25z m-827 -31 c-10 -2 -28 -2 -40 0 -13 2 -5 4 17 4 22 1 32 -1 23
-4z m600 -22 c17 -1 32 -4 32 -8 0 -5 -31 -7 -70 -5 -38 2 -70 8 -70 12 0 5
17 7 38 5 20 -1 52 -3 70 -4z m1834 -16 c4 -20 1 -25 -16 -25 -17 0 -18 -2 -6
-10 12 -8 11 -10 -7 -10 -12 0 -24 6 -27 13 -5 10 -7 10 -12 0 -3 -7 -13 -13
-22 -13 -15 0 -15 2 -2 10 11 7 8 9 -15 8 -16 -1 -36 -8 -43 -15 -22 -21 -42
-15 -42 12 0 26 5 28 122 45 29 4 56 8 59 9 4 0 9 -10 11 -24z m-775 9 c-3 -3
-12 -4 -19 -1 -8 3 -5 6 6 6 11 1 17 -2 13 -5z m1190 -20 c-3 -3 -12 -4 -19
-1 -8 3 -5 6 6 6 11 1 17 -2 13 -5z m-1330 -10 c-3 -3 -12 -4 -19 -1 -8 3 -5
6 6 6 11 1 17 -2 13 -5z m1421 -1 c-10 -2 -28 -2 -40 0 -13 2 -5 4 17 4 22 1
32 -1 23 -4z m110 -10 c-10 -2 -28 -2 -40 0 -13 2 -5 4 17 4 22 1 32 -1 23 -4z
m100 -10 c-10 -2 -28 -2 -40 0 -13 2 -5 4 17 4 22 1 32 -1 23 -4z m110 -10
c-10 -2 -28 -2 -40 0 -13 2 -5 4 17 4 22 1 32 -1 23 -4z m-3518 -40 c102 -4
175 -9 163 -11 -13 -2 -23 -8 -23 -14 0 -7 -51 -9 -162 -4 -216 9 -258 14
-258 33 0 12 9 14 48 9 26 -3 130 -9 232 -13z m1295 -3 c28 -17 34 -18 39 -5
3 8 13 15 23 15 15 0 16 -2 3 -10 -10 -7 18 -10 90 -11 58 0 128 -7 155 -14
47 -13 48 -14 10 -10 -184 19 -276 17 -309 -8 -17 -14 -31 -96 -18 -114 12
-19 129 -32 304 -35 165 -2 186 -9 147 -44 -15 -14 -43 -18 -161 -21 -160 -4
-211 -10 -203 -24 4 -5 -9 -10 -27 -10 l-33 -1 30 -8 c53 -13 83 -11 87 6 3
15 16 17 93 15 49 -1 93 -7 96 -13 4 -6 14 -3 27 10 11 11 23 18 25 15 10 -9
-6 -35 -27 -43 -16 -7 -8 -9 30 -9 60 -1 114 -11 114 -20 0 -4 -10 -7 -22 -8
-13 0 -117 -1 -233 -3 -176 -3 -196 -4 -125 -11 47 -4 150 -8 230 -9 110 -1
139 -4 120 -12 -39 -16 -493 -6 -514 11 -19 16 -21 51 -3 52 10 0 10 2 0 6 -7
2 -13 18 -13 33 l0 29 35 -15 c45 -19 75 -18 75 2 0 32 -21 53 -71 69 -48 16
-49 18 -34 35 9 10 14 24 10 29 -3 6 -1 11 5 11 5 0 10 12 10 28 0 15 2 43 4
62 2 19 -2 38 -8 42 -26 17 10 6 39 -12z m-1042 -26 c-7 -18 -10 -18 -22 5 -9
16 -8 18 8 14 12 -3 17 -11 14 -19z m3245 19 c-10 -2 -26 -2 -35 0 -10 3 -2 5
17 5 19 0 27 -2 18 -5z m120 0 c-10 -2 -28 -2 -40 0 -13 2 -5 4 17 4 22 1 32
-1 23 -4z m-1041 -75 c-2 -13 -4 -3 -4 22 0 25 2 35 4 23 2 -13 2 -33 0 -45z
m-1477 17 c-9 -11 -17 -12 -34 -3 -33 17 -32 18 9 18 32 0 36 -2 25 -15z m440
-10 c10 -12 7 -15 -17 -20 -47 -11 -55 -14 -48 -24 3 -6 -3 -15 -14 -20 -24
-13 -62 -14 -58 -2 1 5 -7 17 -18 25 -19 15 -19 15 13 16 19 0 31 5 30 12 -5
24 93 35 112 13z m327 -7 c-3 -8 -6 -5 -6 6 -1 11 2 17 5 13 3 -3 4 -12 1 -19z
m187 -3 c3 -8 1 -15 -4 -15 -6 0 -10 7 -10 15 0 8 2 15 4 15 2 0 6 -7 10 -15z
m613 -17 c-3 -7 -5 -2 -5 12 0 14 2 19 5 13 2 -7 2 -19 0 -25z m-1597 1 c0
-10 -50 -18 -55 -9 -3 5 0 10 6 12 18 6 49 4 49 -3z m717 -61 c-3 -8 -6 -5 -6
6 -1 11 2 17 5 13 3 -3 4 -12 1 -19z m-622 -27 c3 -5 2 -12 -3 -15 -5 -3 -9 1
-9 9 0 17 3 19 12 6z m2065 -10 c0 -17 -12 -41 -21 -41 -5 0 -9 11 -9 25 0 16
6 25 15 25 8 0 15 -4 15 -9z m34 -6 c3 -8 17 -20 32 -25 15 -6 24 -13 22 -16
-9 -9 -58 8 -58 20 0 6 -4 5 -9 -3 -7 -10 -9 -7 -8 12 2 30 12 35 21 12z m224
2 c6 0 12 -3 12 -6 0 -3 46 -5 102 -4 57 1 93 -1 81 -3 -12 -3 -27 -13 -35
-22 -9 -11 -10 -14 0 -8 17 10 15 2 -8 -36 -11 -18 -20 -27 -20 -20 0 6 -7 12
-15 12 -8 0 -15 4 -15 9 0 15 -29 21 -55 11 -19 -7 -27 -6 -34 8 -15 25 -14
-63 0 -91 9 -16 9 -22 0 -25 -13 -4 -15 -48 -2 -56 5 -4 11 -2 13 4 2 6 9 1
15 -10 11 -17 9 -21 -15 -34 -15 -9 -21 -15 -14 -16 18 0 15 -30 -4 -30 -8 0
-12 -4 -9 -10 3 -5 2 -10 -2 -10 -5 0 -8 18 -8 41 0 42 -17 62 -47 55 -9 -2
-19 1 -22 8 -2 6 -5 2 -5 -9 -1 -17 -3 -17 -11 -5 -9 13 -10 13 -10 0 0 -13
-1 -13 -10 0 -14 22 -20 8 -13 -34 3 -21 9 -34 12 -29 11 15 46 8 58 -12 6
-11 14 -19 17 -17 14 5 24 1 50 -22 l28 -23 -24 -7 c-22 -6 -23 -7 -4 -21 20
-15 20 -15 0 -15 -15 0 -16 -2 -4 -9 8 -6 17 -8 20 -6 4 2 7 -3 7 -11 0 -11
-7 -14 -26 -9 -14 4 -29 12 -33 18 -5 8 -13 8 -30 -1 -41 -20 -78 -19 -78 4 0
8 -4 12 -10 9 -5 -3 -10 1 -10 9 0 19 36 39 53 30 8 -5 7 -2 -2 9 -7 9 -19 17
-25 17 -8 0 -12 21 -11 59 0 74 -23 106 -72 98 -18 -3 -39 0 -50 8 -17 13 -17
15 6 36 19 18 27 20 42 11 10 -7 26 -12 34 -12 18 0 20 31 3 48 -9 9 -10 15
-2 20 6 4 13 15 17 25 4 11 12 15 19 11 13 -8 58 -12 58 -6 0 3 -13 20 -30 39
-19 21 -30 28 -30 18 0 -25 -52 -13 -58 14 -2 11 15 12 95 6 54 -4 104 -7 111
-8z m-2195 -13 c9 -10 -4 -34 -19 -34 -8 0 -14 6 -14 13 0 22 19 35 33 21z
m2431 -13 c3 -5 -1 -11 -9 -14 -9 -4 -12 -1 -8 9 6 16 10 17 17 5z m-1164 -22
c0 -5 -4 -9 -10 -9 -5 0 -10 7 -10 16 0 8 5 12 10 9 6 -3 10 -10 10 -16z m807
-5 c-9 -9 -28 6 -21 18 4 6 10 6 17 -1 6 -6 8 -13 4 -17z m-1522 -2 c20 -16
29 -62 13 -62 -4 0 -8 8 -8 18 0 11 -3 13 -8 5 -10 -16 -37 5 -44 35 -7 27 17
30 47 4z m1879 -36 c-4 -17 -7 -42 -6 -56 l1 -25 -10 25 c-23 54 -20 87 7 87
11 0 13 -7 8 -31z m-494 14 c0 -5 -4 -10 -10 -10 -5 0 -10 5 -10 10 0 6 5 10
10 10 6 0 10 -4 10 -10z m75 0 c3 -5 1 -10 -4 -10 -6 0 -11 5 -11 10 0 6 2 10
4 10 3 0 8 -4 11 -10z m-602 -24 c4 -10 1 -13 -8 -9 -8 3 -12 9 -9 14 7 12 11
11 17 -5z m-1703 -12 c0 -9 -7 -14 -17 -12 -25 5 -28 28 -4 28 12 0 21 -6 21
-16z m1457 -6 c-3 -8 -6 -5 -6 6 -1 11 2 17 5 13 3 -3 4 -12 1 -19z m472 1 c2
-8 5 -8 11 1 5 8 16 6 41 -9 19 -12 30 -21 25 -21 -6 0 -1 -7 10 -16 19 -15
19 -15 -2 -9 -11 3 -58 21 -105 40 l-84 36 50 -5 c27 -3 51 -10 54 -17z m-360
-31 c-1 -24 -4 -33 -6 -20 -2 12 -9 20 -14 16 -5 -3 -7 -10 -4 -15 4 -5 2 -9
-4 -9 -5 0 -13 5 -16 10 -3 6 -1 10 6 10 10 0 10 3 1 12 -10 10 4 25 36 37 1
1 1 -18 1 -41z m501 26 c0 -8 -4 -12 -10 -9 -5 3 -10 10 -10 16 0 5 5 9 10 9
6 0 10 -7 10 -16z m510 1 c0 -8 -7 -15 -16 -15 -14 0 -14 3 -4 15 7 8 14 15
16 15 2 0 4 -7 4 -15z m-1732 -10 c3 -3 0 -5 -7 -5 -7 0 -9 -5 -5 -11 4 -8 0
-8 -15 0 -11 7 -21 16 -21 21 0 9 38 5 48 -5z m787 -3 c-3 -3 -11 0 -18 7 -9
10 -8 11 6 5 10 -3 15 -9 12 -12z m145 8 c8 -5 12 -11 9 -14 -3 -3 -14 1 -25
9 -21 16 -8 20 16 5z m530 -20 c0 -19 -28 -10 -33 10 -4 17 -2 18 14 9 10 -5
19 -14 19 -19z m-1346 -2 c-3 -4 -9 -8 -15 -8 -5 0 -9 4 -9 8 0 5 7 9 15 9 8
0 12 -4 9 -9z m1081 2 c3 -5 2 -10 -4 -10 -5 0 -13 5 -16 10 -3 6 -2 10 4 10
5 0 13 -4 16 -10z m559 -10 c-13 -13 -52 -17 -56 -5 -2 5 11 12 27 16 34 6 43
3 29 -11z m-1519 -10 c2 -4 -7 -5 -20 -2 -14 2 -25 8 -25 12 0 10 38 1 45 -10z
m625 10 c13 -9 13 -10 0 -11 -8 -1 -17 -1 -20 -1 -3 0 -7 -10 -8 -23 -2 -27
16 -44 28 -25 5 8 10 8 14 2 7 -12 -19 -23 -38 -16 -13 5 -27 69 -17 79 7 8
25 6 41 -5z m917 -20 c-5 -20 -1 -34 11 -46 12 -13 13 -19 4 -22 -15 -5 -6
-22 13 -22 10 0 12 9 8 37 -5 27 -3 34 6 29 6 -4 9 -16 6 -27 -7 -21 13 -23
28 -4 4 6 11 4 17 -5 7 -11 5 -16 -10 -18 -13 -2 -20 -11 -20 -25 0 -12 -4
-17 -8 -12 -4 6 -17 12 -30 12 -21 2 -22 -1 -17 -35 3 -20 2 -30 -1 -22 -3 8
-12 29 -20 47 -17 37 -18 46 -4 38 6 -3 10 -4 10 -1 0 3 -9 10 -21 17 -19 10
-20 9 -14 -13 5 -20 5 -21 -5 -5 -9 14 -9 22 0 33 10 11 9 18 -1 31 -13 15
-11 16 16 10 17 -3 24 -4 17 -1 -10 5 -10 9 -1 20 18 21 22 17 16 -16z m-762
10 c13 -6 15 -9 5 -9 -8 0 -22 4 -30 9 -18 12 -2 12 25 0z m-3120 -10 c4 -6
-10 -10 -37 -9 -40 1 -41 2 -13 9 43 11 43 11 50 0z m3180 -18 c-3 -3 -11 0
-18 7 -9 10 -8 11 6 5 10 -3 15 -9 12 -12z m775 -17 c0 -5 -5 -3 -10 5 -5 8
-10 20 -10 25 0 6 5 3 10 -5 5 -8 10 -19 10 -25z m17 13 c-3 -8 -6 -5 -6 6 -1
11 2 17 5 13 3 -3 4 -12 1 -19z m-3172 3 c-3 -5 -1 -12 5 -16 5 -3 10 1 10 9
0 12 10 16 40 16 33 0 38 -3 33 -17 -5 -15 -3 -14 10 2 13 15 16 16 17 5 0 -9
3 -11 8 -5 14 20 42 17 42 -5 0 -19 -6 -20 -95 -20 -88 0 -95 1 -95 20 0 11 7
20 16 20 8 0 13 -4 9 -9z m3020 -11 c3 -5 1 -10 -4 -10 -6 0 -11 5 -11 10 0 6
2 10 4 10 3 0 8 -4 11 -10z m-3815 -8 c0 -10 -57 -32 -65 -24 -3 3 7 11 22 18
34 15 43 16 43 6z m1613 -17 c93 -9 77 -18 -27 -16 -93 2 -112 6 -119 25 -4
10 4 11 36 5 23 -4 73 -11 110 -14z m1532 -4 c6 0 38 -10 73 -22 48 -16 62
-25 62 -40 0 -11 -4 -18 -9 -14 -5 3 -12 2 -15 -3 -8 -13 28 -11 36 2 5 7 8 4
8 -6 0 -10 4 -18 8 -18 5 0 8 -16 8 -35 -1 -31 -3 -34 -26 -28 -14 3 -58 21
-97 41 -66 32 -73 38 -74 66 l-1 31 -8 -30 c-5 -20 -8 -24 -9 -10 -1 17 -3 18
-11 5 -8 -12 -10 -11 -10 6 0 11 -5 25 -12 32 -8 8 -9 12 -1 12 6 0 13 -5 15
-11 2 -7 10 -4 18 7 9 11 10 15 3 10 -8 -4 -13 -1 -13 8 0 12 5 14 23 7 12 -5
27 -9 32 -10z m-765 -7 c0 -8 -5 -12 -10 -9 -6 4 -8 11 -5 16 9 14 15 11 15
-7z m940 6 c0 -5 -5 -10 -11 -10 -5 0 -7 5 -4 10 3 6 8 10 11 10 2 0 4 -4 4
-10z m200 -5 c0 -9 -6 -12 -16 -8 -13 5 -13 7 -2 14 17 11 18 11 18 -6z
m-1491 1 c-10 -9 -139 -14 -139 -6 0 6 32 10 72 10 39 0 69 -2 67 -4z m1444
-16 c3 -11 1 -18 -4 -14 -5 3 -9 12 -9 20 0 20 7 17 13 -6z m-1060 -10 c-3
-11 -9 -17 -14 -15 -10 7 -1 35 11 35 5 0 6 -9 3 -20z m1307 -22 c0 -4 -4 -8
-10 -8 -5 0 -10 4 -10 9 0 5 -3 18 -6 28 -5 16 -4 16 10 -1 9 -11 16 -23 16
-28z m-700 22 c0 -5 -4 -10 -10 -10 -5 0 -10 5 -10 10 0 6 5 10 10 10 6 0 10
-4 10 -10z m27 -12 c-3 -8 -6 -5 -6 6 -1 11 2 17 5 13 3 -3 4 -12 1 -19z m478
-10 c6 -4 2 -8 -7 -8 -10 0 -18 7 -18 17 0 9 3 12 8 7 4 -5 12 -12 17 -16z
m280 12 c3 -5 1 -10 -4 -10 -6 0 -11 5 -11 10 0 6 2 10 4 10 3 0 8 -4 11 -10z
m169 -5 c-4 -8 -11 -15 -16 -15 -6 0 -5 6 2 15 7 8 14 15 16 15 2 0 1 -7 -2
-15z m-394 -48 c0 -22 -1 -22 -20 3 -25 32 -25 43 0 30 11 -6 20 -21 20 -33z
m-1370 3 c8 -5 11 -10 5 -10 -5 0 -17 5 -25 10 -8 5 -10 10 -5 10 6 0 17 -5
25 -10z m310 6 c0 -2 3 -12 6 -20 4 -12 2 -15 -9 -10 -21 8 -30 34 -12 34 8 0
15 -2 15 -4z m1028 -8 c16 -16 15 -28 -3 -28 -8 0 -15 2 -15 4 0 2 -3 11 -6
20 -7 19 7 21 24 4z m294 -40 c-2 -10 -11 -18 -18 -18 -15 0 -18 27 -8 54 6
15 8 15 19 0 7 -10 10 -26 7 -36z m65 5 c-3 -10 -5 -4 -5 12 0 17 2 24 5 18 2
-7 2 -21 0 -30z m-41 -28 c-4 -24 -16 -30 -16 -7 0 12 4 22 9 22 5 0 8 -7 7
-15z m-62 -23 c-6 -4 -10 -15 -8 -24 1 -10 -2 -18 -7 -18 -10 0 -12 53 -2 63
4 4 11 3 17 -3 8 -8 8 -13 0 -18z m-2460 -17 c11 -12 27 -29 34 -38 12 -14 11
-15 -16 -7 -47 13 -65 26 -67 47 -2 26 22 25 49 -2z m1010 10 c4 -10 -1 -15
-14 -15 -13 0 -18 5 -14 15 4 8 10 15 14 15 4 0 10 -7 14 -15z m1596 -15 c0
-22 -35 -41 -59 -32 -7 3 -27 5 -44 6 -17 1 -32 7 -35 15 -3 8 0 11 6 7 6 -3
13 0 15 6 4 10 7 10 14 1 10 -14 85 -25 77 -12 -6 11 4 29 17 29 5 0 9 -9 9
-20z m-250 -14 c0 -3 -4 -8 -10 -11 -5 -3 -10 -1 -10 4 0 6 5 11 10 11 6 0 10
-2 10 -4z m-73 -32 c-3 -3 -12 -4 -19 -1 -8 3 -5 6 6 6 11 1 17 -2 13 -5z
m-1884 -181 c-7 -2 -19 -2 -25 0 -7 3 -2 5 12 5 14 0 19 -2 13 -5z"/>
<path d="M1948 743 c6 -2 18 -2 25 0 6 3 1 5 -13 5 -14 0 -19 -2 -12 -5z"/>
<path d="M1808 673 c7 -3 16 -2 19 1 4 3 -2 6 -13 5 -11 0 -14 -3 -6 -6z"/>
<path d="M3754 689 c-3 -6 -17 -8 -29 -5 -37 10 -55 -3 -55 -38 0 -38 15 -56
46 -56 25 0 39 28 29 60 -3 11 -2 20 3 20 14 0 42 -35 42 -53 0 -9 4 -19 10
-22 5 -3 7 0 4 9 -3 8 0 25 7 37 10 20 9 25 -11 41 -26 21 -36 22 -46 7z m-44
-32 c0 -8 -7 -14 -15 -14 -16 0 -19 9 -8 20 11 11 23 8 23 -6z m28 -38 c-3 -8
-7 -3 -11 10 -4 17 -3 21 5 13 5 -5 8 -16 6 -23z m-22 -17 c-4 -3 -14 2 -24
12 -16 18 -16 18 6 6 13 -6 21 -14 18 -18z"/>
<path d="M3700 348 c0 -9 36 -5 46 5 4 4 -5 6 -19 5 -15 -1 -27 -6 -27 -10z"/>
<path d="M930 586 c0 -2 7 -7 16 -10 8 -3 12 -2 9 4 -6 10 -25 14 -25 6z"/>
<path d="M3280 510 c-12 -7 -10 -9 8 -7 12 0 22 5 22 9 0 11 -12 10 -30 -2z"/>
<path d="M1160 2375 c-7 -9 -10 -18 -7 -22 4 -3 2 -12 -3 -18 -13 -16 -2 -45
16 -45 8 0 14 -4 14 -8 0 -10 53 -7 70 3 7 4 10 16 7 26 -3 10 0 20 7 22 7 3
4 12 -8 26 -13 15 -23 18 -30 11 -14 -14 -26 -12 -26 5 0 19 -24 19 -40 0z"/>
<path d="M3719 2369 c-23 -19 -23 -20 -2 -10 12 6 25 16 28 21 10 16 -1 12
-26 -11z"/>
<path d="M3980 2350 c-9 -6 -10 -10 -3 -10 6 0 15 5 18 10 8 12 4 12 -15 0z"/>
<path d="M3665 2340 c-3 -6 1 -7 9 -4 18 7 21 14 7 14 -6 0 -13 -4 -16 -10z"/>
<path d="M960 2303 c0 -20 4 -23 20 -18 16 5 20 2 20 -19 0 -14 -7 -29 -17
-34 -14 -9 -14 -11 6 -21 12 -7 29 -11 38 -9 15 3 15 5 -1 20 -11 12 -15 25
-10 43 6 24 24 36 24 15 0 -5 5 -10 10 -10 6 0 10 8 10 19 0 14 -11 21 -50 28
-49 10 -50 10 -50 -14z"/>
<path d="M3824 2267 c0 -16 4 -23 13 -20 7 3 10 9 7 14 -6 11 148 1 159 -10 4
-4 -33 -27 -83 -50 -49 -24 -90 -49 -90 -57 0 -8 6 -11 15 -8 8 4 12 11 8 17
-3 5 -1 7 5 3 12 -7 82 23 82 36 0 5 5 6 10 3 6 -3 10 -1 10 5 0 6 4 9 9 6 13
-9 42 4 35 16 -3 5 0 8 7 7 20 -3 69 12 69 21 0 7 -66 18 -205 36 -49 6 -51 5
-51 -19z"/>
<path d="M1088 2233 c4 -19 2 -24 -8 -18 -8 5 -11 3 -8 -6 5 -17 58 -25 58
-10 0 6 -7 11 -16 11 -8 0 -12 5 -9 10 3 6 15 10 26 10 32 0 16 24 -18 27 -28
2 -30 0 -25 -24z"/>
<path d="M1171 2236 c-21 -25 12 -66 53 -66 24 0 21 57 -3 70 -26 13 -36 13
-50 -4z m56 -32 c-3 -3 -12 -4 -19 -1 -8 3 -5 6 6 6 11 1 17 -2 13 -5z"/>
<path d="M1260 2236 c0 -2 7 -21 16 -41 l16 -38 17 27 c10 14 21 23 24 19 4
-3 7 -2 7 4 0 21 -28 22 -33 1 -3 -12 -10 -17 -17 -13 -6 4 -9 13 -6 20 2 7
-2 16 -10 19 -8 3 -14 4 -14 2z"/>
<path d="M3480 2230 c-9 -6 -10 -10 -3 -10 6 0 15 5 18 10 8 12 4 12 -15 0z"/>
<path d="M1362 2208 c-18 -18 -15 -35 10 -52 29 -21 33 -20 46 8 9 20 7 27 -7
40 -21 19 -33 20 -49 4z m45 -35 c-15 -15 -37 -11 -37 7 0 10 31 19 43 12 5
-2 2 -11 -6 -19z"/>
<path d="M3545 2128 c-99 -50 -182 -94 -183 -99 -2 -5 -8 -7 -13 -3 -5 3 -9 1
-9 -5 0 -6 -6 -8 -13 -5 -7 2 -21 -2 -31 -9 -15 -11 -16 -16 -6 -22 9 -5 11
-4 6 3 -4 7 -1 13 6 13 41 4 78 18 78 30 0 5 3 8 8 7 14 -4 52 13 52 23 0 6 5
7 10 4 6 -3 10 -1 10 5 0 6 4 9 9 6 7 -5 245 105 260 119 1 2 1 8 0 13 -2 6
-85 -31 -184 -80z"/>
<path d="M942 2148 c7 -20 48 -23 48 -4 0 11 -9 16 -26 16 -16 0 -24 -5 -22
-12z"/>
<path d="M3943 2108 c-62 -28 -110 -54 -107 -59 5 -9 24 -3 152 53 50 22 92
44 92 49 0 16 -22 9 -137 -43z"/>
<path d="M1010 2135 c0 -8 9 -15 19 -15 10 0 21 7 25 15 4 11 -1 15 -19 15
-16 0 -25 -6 -25 -15z"/>
<path d="M1098 2133 c7 -3 16 -2 19 1 4 3 -2 6 -13 5 -11 0 -14 -3 -6 -6z"/>
<path d="M1125 2120 c-3 -5 -4 -10 -1 -10 2 0 11 -3 20 -6 11 -4 16 -1 16 10
0 18 -25 22 -35 6z"/>
<path d="M1176 2116 c7 -19 53 -30 69 -16 9 8 15 8 18 0 3 -6 4 -5 3 2 -1 7
-11 15 -21 16 -10 3 -15 0 -11 -7 10 -16 -3 -13 -20 4 -19 19 -45 20 -38 1z"/>
<path d="M1286 2095 c-3 -9 0 -15 9 -15 9 0 12 6 9 15 -4 8 -7 15 -9 15 -2 0
-5 -7 -9 -15z"/>
<path d="M3593 2048 c-103 -48 -130 -65 -125 -77 6 -14 7 -14 10 2 2 9 8 15
13 12 5 -4 9 -2 9 4 0 6 6 8 14 5 7 -3 20 1 27 8 8 7 21 14 29 16 8 2 17 8 18
13 2 5 7 7 12 4 11 -7 60 15 60 27 0 4 3 7 8 6 15 -4 50 13 56 27 3 8 4 15 3
15 -1 -1 -61 -28 -134 -62z"/>
<path d="M1340 2085 c0 -10 11 -15 35 -15 19 0 35 4 35 9 0 13 -34 24 -38 12
-2 -6 -8 -11 -13 -11 -6 0 -7 5 -4 10 3 6 1 10 -4 10 -6 0 -11 -7 -11 -15z"/>
<path d="M3957 2025 c-111 -44 -124 -51 -116 -60 8 -7 233 82 237 94 5 16 -2
14 -121 -34z"/>
<path d="M3672 1991 l-62 -27 35 -14 c19 -7 32 -17 29 -21 -2 -4 4 -6 13 -4
10 2 23 4 28 4 19 2 -20 21 -42 21 -16 0 -21 4 -17 15 4 8 10 12 15 9 5 -3 9
-1 9 5 0 6 6 8 13 5 7 -2 21 2 32 10 35 26 12 24 -53 -3z"/>
<path d="M3990 1963 c-36 -13 -69 -29 -75 -35 -6 -6 0 -5 13 2 20 10 26 9 36
-6 7 -9 18 -14 24 -10 7 4 12 4 12 -1 0 -4 18 -8 40 -8 22 -1 40 3 40 7 0 4
-15 8 -32 8 -42 0 -78 10 -78 21 0 5 3 8 8 8 4 -1 10 0 15 1 8 3 8 3 55 14 17
4 32 12 32 17 0 13 -17 10 -90 -18z"/>
<path d="M3498 1953 c7 -3 16 -2 19 1 4 3 -2 6 -13 5 -11 0 -14 -3 -6 -6z"/>
<path d="M3730 1921 c0 -11 -8 -22 -17 -24 -12 -3 -9 -5 8 -6 23 -1 26 2 21
24 -5 30 -12 33 -12 6z"/>
<path d="M3844 1925 c1 -8 6 -18 11 -22 4 -4 5 -3 2 4 -4 6 -2 13 5 15 8 3 6
6 -4 10 -10 4 -15 2 -14 -7z"/>
<path d="M3310 1920 c0 -5 18 -7 43 -4 58 8 60 14 4 14 -26 0 -47 -4 -47 -10z"/>
<path d="M3460 1907 c17 -9 33 -11 53 -4 39 13 34 17 -25 17 -50 0 -51 -1 -28
-13z"/>
<path d="M3450 1889 c0 -5 -4 -7 -10 -4 -5 3 -10 1 -10 -4 0 -13 3 -13 24 -5
18 7 22 24 6 24 -5 0 -10 -5 -10 -11z"/>
<path d="M3864 1883 c23 -4 26 -7 15 -15 -11 -8 -10 -9 4 -4 10 3 25 6 33 6 9
0 12 5 9 10 -3 6 -25 9 -48 9 -33 -2 -36 -3 -13 -6z"/>
<path d="M3980 1866 c0 -14 29 -31 38 -21 3 2 -3 7 -12 11 -9 3 -13 10 -10 15
3 5 0 9 -5 9 -6 0 -11 -6 -11 -14z"/>
<path d="M3380 1860 c0 -5 5 -10 10 -10 6 0 10 5 10 10 0 6 -4 10 -10 10 -5 0
-10 -4 -10 -10z"/>
<path d="M3698 1853 c-54 -22 -47 -35 7 -15 25 9 45 20 45 24 0 10 -8 9 -52
-9z"/>
<path d="M3625 1820 c4 -6 11 -8 16 -5 14 9 11 15 -7 15 -8 0 -12 -5 -9 -10z"/>
<path d="M3870 1819 c0 -5 5 -7 10 -4 6 3 10 8 10 11 0 2 -4 4 -10 4 -5 0 -10
-5 -10 -11z"/>
<path d="M4030 1332 c0 -5 -10 -14 -22 -21 -22 -11 -22 -11 5 -6 15 3 27 2 27
-2 0 -5 9 -19 20 -33 l20 -25 0 38 c0 26 -4 37 -15 37 -8 0 -15 5 -15 10 0 6
-4 10 -10 10 -5 0 -10 -4 -10 -8z"/>
<path d="M717 1000 c-12 -57 -8 -88 11 -94 9 -3 122 -8 251 -12 l234 -7 -7 29
c-4 15 -13 42 -21 59 -12 31 -16 32 -86 38 -41 4 -142 10 -225 13 l-151 7 -6
-33z"/>
<path d="M56 878 c3 -4 33 -8 66 -8 34 0 58 3 54 7 -10 10 -126 11 -120 1z"/>
<path d="M596 835 c-14 -37 -7 -63 19 -69 14 -4 31 -4 37 0 5 4 36 6 68 5 45
-1 61 3 75 19 10 11 16 22 14 24 -2 1 -40 8 -84 14 -44 7 -90 14 -101 18 -14
4 -23 0 -28 -11z"/>
<path d="M966 803 c-15 -4 -16 -7 -5 -15 9 -6 -7 -8 -50 -6 -41 2 -66 -1 -68
-8 -6 -17 46 -24 168 -24 90 0 109 3 109 15 0 12 -14 15 -62 15 -38 0 -58 4
-50 9 11 7 10 10 -3 15 -9 3 -17 5 -18 5 -1 -1 -11 -4 -21 -6z"/>
<path d="M353 744 c-13 -14 -23 -34 -23 -45 0 -16 7 -19 43 -17 l42 1 -37 4
c-22 3 -38 10 -38 17 0 12 26 13 148 3 22 -2 32 1 32 11 0 8 -10 13 -27 11
-16 -1 -50 -1 -77 -1 -43 2 -48 4 -43 22 6 25 7 25 -20 -6z"/>
<path d="M0 706 c0 -32 2 -34 33 -31 17 2 42 3 54 4 15 1 25 9 29 25 5 20 14
26 42 29 21 2 -7 4 -60 5 l-98 1 0 -33z"/>
<path d="M143 673 c15 -2 39 -2 55 0 15 2 2 4 -28 4 -30 0 -43 -2 -27 -4z"/>
<path d="M605 620 c-4 -6 12 -10 44 -10 65 0 75 16 11 19 -26 1 -51 -3 -55 -9z"/>
<path d="M1215 620 c-27 -7 -25 -8 18 -9 30 -1 46 3 42 9 -7 11 -16 11 -60 0z"/>
<path d="M3460 550 c0 -5 5 -10 11 -10 5 0 7 5 4 10 -3 6 -8 10 -11 10 -2 0
-4 -4 -4 -10z"/>
<path d="M3510 423 c1 -10 26 -43 33 -43 3 0 0 11 -6 25 -11 23 -27 34 -27 18z"/>
<path d="M2740 406 c0 -2 7 -7 16 -10 8 -3 12 -2 9 4 -6 10 -25 14 -25 6z"/>
<path d="M2690 377 c0 -7 72 -48 76 -44 2 2 -14 14 -36 26 -22 12 -40 20 -40
18z"/>
<path d="M2565 330 c3 -5 8 -10 11 -10 2 0 4 5 4 10 0 6 -5 10 -11 10 -5 0 -7
-4 -4 -10z"/>
<path d="M1748 313 c-2 -11 6 -23 20 -30 29 -15 53 -17 32 -2 -12 8 -8 9 15 8
62 -4 78 0 66 15 -10 11 -8 15 6 19 10 3 -17 5 -59 6 -65 1 -77 -2 -80 -16z"/>
<path d="M3553 293 c15 -2 39 -2 55 0 15 2 2 4 -28 4 -30 0 -43 -2 -27 -4z"/>
<path d="M398 283 c12 -2 30 -2 40 0 9 3 -1 5 -23 4 -22 0 -30 -2 -17 -4z"/>
<path d="M730 280 c0 -5 5 -10 10 -10 6 0 10 5 10 10 0 6 -4 10 -10 10 -5 0
-10 -4 -10 -10z"/>
<path d="M3335 282 c-2 -2 -79 -5 -172 -5 -104 -1 -168 -6 -168 -12 0 -5 5 -8
10 -6 6 2 26 2 45 1 19 -1 46 -2 60 -2 189 3 387 1 406 -4 19 -5 24 -2 23 12
0 11 -3 14 -6 6 -2 -6 -9 -9 -15 -6 -11 7 -177 22 -183 16z"/>
<path d="M85 270 c-3 -5 1 -10 9 -10 9 0 16 5 16 10 0 6 -4 10 -9 10 -6 0 -13
-4 -16 -10z"/>
<path d="M3800 260 c-13 -8 -12 -10 3 -10 9 0 17 5 17 10 0 12 -1 12 -20 0z"/>
<path d="M3660 250 c0 -5 5 -10 11 -10 5 0 7 5 4 10 -3 6 -8 10 -11 10 -2 0
-4 -4 -4 -10z"/>
<path d="M3698 243 c7 -3 16 -2 19 1 4 3 -2 6 -13 5 -11 0 -14 -3 -6 -6z"/>
<path d="M3745 240 c-3 -6 1 -7 9 -4 18 7 21 14 7 14 -6 0 -13 -4 -16 -10z"/>
<path d="M3910 239 c-30 -3 -46 -7 -35 -8 17 -1 18 -3 5 -11 -11 -8 -7 -9 15
-4 17 4 32 8 34 10 3 3 16 -6 29 -18 14 -13 22 -17 18 -10 -8 14 -5 15 26 3
13 -4 36 -11 51 -15 26 -6 28 -5 25 21 -3 26 -6 28 -48 28 -25 1 -50 3 -55 6
-6 2 -35 2 -65 -2z"/>
<path d="M3780 236 c0 -2 7 -6 15 -10 8 -3 15 -1 15 4 0 6 -7 10 -15 10 -8 0
-15 -2 -15 -4z"/>
<path d="M248 222 c-47 -2 -78 -7 -78 -13 0 -6 6 -9 14 -6 8 3 20 -1 27 -9 6
-8 14 -12 17 -10 2 3 13 1 24 -5 22 -12 15 -29 -13 -29 -10 0 -19 -5 -19 -11
0 -5 4 -8 9 -4 5 3 15 -1 23 -8 18 -19 54 -37 70 -36 7 0 4 4 -7 9 -13 6 -15
9 -5 9 8 0 24 -6 34 -14 10 -8 23 -12 27 -9 5 3 9 -1 9 -9 0 -9 13 -13 40 -14
28 0 50 -9 78 -31 l38 -31 280 1 c153 0 270 2 259 5 -49 13 -68 24 -58 34 6 6
32 3 74 -10 58 -18 213 -40 162 -23 -13 4 -33 16 -45 27 -13 10 -24 18 -26 16
-3 -3 -48 6 -106 21 -27 6 -35 12 -26 18 8 5 -2 10 -29 15 -37 6 -40 9 -25 19
28 21 -12 32 -44 13 -7 -5 -9 -14 -6 -20 4 -7 4 -9 -1 -5 -4 4 -14 3 -22 -3
-10 -9 -13 -8 -13 0 0 7 -5 9 -12 5 -7 -4 -8 -3 -4 4 4 7 -7 13 -29 18 -43 8
-58 26 -19 23 50 -4 150 2 134 8 -8 3 -17 10 -20 14 -3 4 -22 4 -42 0 -20 -5
-42 -5 -49 0 -8 5 -17 3 -21 -4 -6 -9 -10 -9 -15 -1 -11 15 -58 30 -49 15 4
-6 0 -11 -11 -12 -10 -1 -4 -5 12 -9 l30 -8 -32 -1 c-17 0 -34 -5 -38 -11 -5
-9 -172 -6 -182 3 -2 3 4 12 13 22 12 12 24 14 43 9 41 -12 141 0 141 16 0 4
-11 5 -25 2 -14 -2 -31 0 -38 6 -7 6 -68 11 -142 11 -72 1 -152 2 -180 3 -27
2 -85 2 -127 0z m152 -112 c0 -5 -7 -7 -15 -4 -8 4 -15 8 -15 10 0 2 7 4 15 4
8 0 15 -4 15 -10z m40 6 c0 -2 -7 -7 -16 -10 -8 -3 -12 -2 -9 4 6 10 25 14 25
6z m390 -6 c0 -5 -5 -10 -11 -10 -5 0 -7 5 -4 10 3 6 8 10 11 10 2 0 4 -4 4
-10z"/>
<path d="M778 213 c7 -3 16 -2 19 1 4 3 -2 6 -13 5 -11 0 -14 -3 -6 -6z"/>
<path d="M3090 215 c0 -7 30 -13 34 -7 3 4 -4 9 -15 9 -10 1 -19 0 -19 -2z"/>
<path d="M3393 203 c9 -2 23 -2 30 0 6 3 -1 5 -18 5 -16 0 -22 -2 -12 -5z"/>
<path d="M3494 185 c8 -8 18 -15 22 -15 3 0 1 7 -6 15 -7 8 -17 15 -22 15 -5
0 -3 -7 6 -15z"/>
<path d="M905 141 c-10 -18 17 -23 33 -7 15 15 15 16 -5 16 -12 0 -24 -4 -28
-9z"/>
<path d="M1720 139 c0 -4 7 -9 15 -13 9 -3 15 0 15 8 0 7 -7 13 -15 13 -8 0
-15 -4 -15 -8z"/>
<path d="M2530 140 c0 -5 5 -10 11 -10 5 0 7 5 4 10 -3 6 -8 10 -11 10 -2 0
-4 -4 -4 -10z"/>
<path d="M0 69 l0 -69 65 0 c36 0 65 4 65 10 0 15 -50 60 -68 61 -10 0 -12 3
-5 6 17 6 -11 49 -37 56 -18 5 -20 0 -20 -64z"/>
<path d="M220 110 c-13 -8 -12 -10 3 -10 9 0 17 5 17 10 0 12 -1 12 -20 0z"/>
<path d="M2578 103 c7 -3 16 -2 19 1 4 3 -2 6 -13 5 -11 0 -14 -3 -6 -6z"/>
<path d="M3255 96 c44 -20 128 -46 145 -46 28 0 -24 26 -87 43 -74 20 -100 21
-58 3z"/>
<path d="M3665 96 c11 -8 25 -11 33 -8 11 4 11 6 0 13 -7 5 -22 9 -32 9 -19 0
-19 0 -1 -14z"/>
<path d="M3451 92 c-15 -11 2 -27 18 -18 5 4 17 3 26 0 12 -5 13 -9 5 -14 -7
-4 1 -8 17 -8 53 -1 78 -7 86 -20 5 -7 20 -10 39 -7 18 4 34 1 38 -5 4 -7 41
-12 89 -13 85 -2 108 8 44 18 -36 6 -54 12 -158 45 -22 8 -56 15 -75 17 -19 2
-53 6 -75 9 -22 2 -46 1 -54 -4z"/>
<path d="M3920 91 c0 -5 5 -13 10 -16 6 -3 10 -2 10 4 0 5 -4 13 -10 16 -5 3
-10 2 -10 -4z"/>
<path d="M3885 70 c28 -12 37 -12 30 0 -3 6 -16 10 -28 9 -21 0 -21 -1 -2 -9z"/>
<path d="M256 49 c-10 -10 -23 -16 -27 -13 -5 3 -9 0 -9 -5 0 -13 27 -10 56 7
12 6 25 8 29 4 5 -4 5 -1 1 6 -4 7 -11 10 -16 7 -4 -3 -10 -1 -12 3 -1 5 -12
1 -22 -9z"/>
<path d="M1750 66 c0 -9 30 -14 35 -6 4 6 -3 10 -14 10 -12 0 -21 -2 -21 -4z"/>
<path d="M1812 62 c-23 -8 67 -42 137 -52 36 -5 134 -9 216 -9 127 1 142 3
100 11 -27 5 -59 11 -71 12 -11 1 -24 5 -30 8 -5 3 -44 5 -87 4 -42 0 -77 1
-77 4 0 12 -52 3 -60 -10 -6 -10 -14 -6 -35 15 -16 15 -25 20 -22 12 4 -11 1
-14 -8 -10 -8 3 -13 8 -11 12 5 7 -33 10 -52 3z"/>
<path d="M3815 50 c27 -12 43 -12 25 0 -8 5 -22 9 -30 9 -10 0 -8 -3 5 -9z"/>
<path d="M3873 33 c11 -3 16 -11 13 -19 -4 -10 3 -14 24 -14 17 0 30 4 30 9 0
10 -55 32 -74 30 -6 -1 -3 -3 7 -6z"/>
<path d="M136 17 c3 -10 9 -15 12 -12 3 3 0 11 -7 18 -10 9 -11 8 -5 -6z"/>
<path d="M280 15 c-16 -19 -3 -19 16 0 9 8 11 15 6 15 -5 0 -15 -7 -22 -15z"/>
<path d="M165 10 c-3 -5 -1 -10 4 -10 6 0 11 5 11 10 0 6 -2 10 -4 10 -3 0 -8
-4 -11 -10z"/>
<path d="M3205 10 c3 -5 16 -10 28 -10 18 0 19 2 7 10 -20 13 -43 13 -35 0z"/>
<path d="M208 3 c6 -2 18 -2 25 0 6 3 1 5 -13 5 -14 0 -19 -2 -12 -5z"/>
</g>
</svg>
